<svg width="314" height="37" viewBox="0 0 314 37" fill="none" xmlns="http://www.w3.org/2000/svg">
<path d="M17.872 9.552C19.888 9.552 21.712 9.968 23.344 10.8C24.976 11.6 26.256 12.848 27.184 14.544C28.144 16.24 28.624 18.432 28.624 21.12V36H19.504V22.608C19.504 20.752 19.12 19.408 18.352 18.576C17.616 17.712 16.576 17.28 15.232 17.28C14.272 17.28 13.392 17.504 12.592 17.952C11.792 18.368 11.168 19.024 10.72 19.92C10.272 20.816 10.048 21.984 10.048 23.424V36H0.928V0.383998H10.048V17.376L7.936 15.216C8.928 13.328 10.288 11.92 12.016 10.992C13.744 10.032 15.696 9.552 17.872 9.552ZM47.734 36.432C44.886 36.432 42.358 35.856 40.15 34.704C37.942 33.552 36.198 31.968 34.918 29.952C33.67 27.904 33.046 25.568 33.046 22.944C33.046 20.32 33.67 18 34.918 15.984C36.198 13.968 37.942 12.4 40.15 11.28C42.358 10.128 44.886 9.552 47.734 9.552C50.582 9.552 53.11 10.128 55.318 11.28C57.558 12.4 59.302 13.968 60.55 15.984C61.798 18 62.422 20.32 62.422 22.944C62.422 25.568 61.798 27.904 60.55 29.952C59.302 31.968 57.558 33.552 55.318 34.704C53.11 35.856 50.582 36.432 47.734 36.432ZM47.734 29.184C48.79 29.184 49.718 28.944 50.518 28.464C51.35 27.984 52.006 27.28 52.486 26.352C52.966 25.392 53.206 24.256 53.206 22.944C53.206 21.632 52.966 20.528 52.486 19.632C52.006 18.704 51.35 18 50.518 17.52C49.718 17.04 48.79 16.8 47.734 16.8C46.71 16.8 45.782 17.04 44.95 17.52C44.15 18 43.494 18.704 42.982 19.632C42.502 20.528 42.262 21.632 42.262 22.944C42.262 24.256 42.502 25.392 42.982 26.352C43.494 27.28 44.15 27.984 44.95 28.464C45.782 28.944 46.71 29.184 47.734 29.184ZM100.535 9.552C102.551 9.552 104.343 9.968 105.911 10.8C107.511 11.6 108.759 12.848 109.655 14.544C110.583 16.24 111.047 18.432 111.047 21.12V36H101.927V22.608C101.927 20.752 101.575 19.408 100.871 18.576C100.167 17.712 99.2068 17.28 97.9908 17.28C97.1268 17.28 96.3428 17.488 95.6388 17.904C94.9348 18.32 94.3908 18.96 94.0068 19.824C93.6228 20.656 93.4308 21.744 93.4308 23.088V36H84.3108V22.608C84.3108 20.752 83.9588 19.408 83.2548 18.576C82.5828 17.712 81.6228 17.28 80.3748 17.28C79.4788 17.28 78.6788 17.488 77.9748 17.904C77.3028 18.32 76.7588 18.96 76.3428 19.824C75.9588 20.656 75.7668 21.744 75.7668 23.088V36H66.6468V9.984H75.3348V17.232L73.6068 15.168C74.5668 13.312 75.8788 11.92 77.5428 10.992C79.2068 10.032 81.0628 9.552 83.1108 9.552C85.4468 9.552 87.4948 10.16 89.2548 11.376C91.0468 12.56 92.2468 14.416 92.8548 16.944L89.8788 16.32C90.8068 14.208 92.1988 12.56 94.0548 11.376C95.9428 10.16 98.1028 9.552 100.535 9.552ZM130.763 36.432C127.691 36.432 125.003 35.856 122.699 34.704C120.427 33.52 118.651 31.92 117.371 29.904C116.123 27.856 115.499 25.536 115.499 22.944C115.499 20.352 116.107 18.048 117.323 16.032C118.571 13.984 120.283 12.4 122.459 11.28C124.635 10.128 127.083 9.552 129.803 9.552C132.363 9.552 134.699 10.08 136.811 11.136C138.923 12.16 140.603 13.68 141.851 15.696C143.099 17.712 143.723 20.16 143.723 23.04C143.723 23.36 143.707 23.728 143.675 24.144C143.643 24.56 143.611 24.944 143.579 25.296H122.987V20.496H138.731L135.275 21.84C135.307 20.656 135.083 19.632 134.603 18.768C134.155 17.904 133.515 17.232 132.683 16.752C131.883 16.272 130.939 16.032 129.851 16.032C128.763 16.032 127.803 16.272 126.971 16.752C126.171 17.232 125.547 17.92 125.099 18.816C124.651 19.68 124.427 20.704 124.427 21.888V23.28C124.427 24.56 124.683 25.664 125.195 26.592C125.739 27.52 126.507 28.24 127.499 28.752C128.491 29.232 129.675 29.472 131.051 29.472C132.331 29.472 133.419 29.296 134.315 28.944C135.243 28.56 136.155 27.984 137.051 27.216L141.851 32.208C140.603 33.584 139.067 34.64 137.243 35.376C135.419 36.08 133.259 36.432 130.763 36.432Z" fill="#224B0C"/>
<path d="M160.024 36.192C157.592 36.192 155.416 35.648 153.496 34.56C151.608 33.472 150.104 31.968 148.984 30.048C147.896 28.128 147.352 25.936 147.352 23.472C147.352 20.976 147.896 18.768 148.984 16.848C150.104 14.928 151.608 13.44 153.496 12.384C155.416 11.296 157.592 10.752 160.024 10.752C162.04 10.752 163.864 11.136 165.496 11.904C167.16 12.672 168.504 13.824 169.528 15.36L167.752 16.656C166.856 15.376 165.736 14.432 164.392 13.824C163.048 13.216 161.592 12.912 160.024 12.912C158.072 12.912 156.312 13.36 154.744 14.256C153.208 15.12 151.992 16.352 151.096 17.952C150.232 19.52 149.8 21.36 149.8 23.472C149.8 25.584 150.232 27.44 151.096 29.04C151.992 30.608 153.208 31.84 154.744 32.736C156.312 33.6 158.072 34.032 160.024 34.032C161.592 34.032 163.048 33.728 164.392 33.12C165.736 32.512 166.856 31.568 167.752 30.288L169.528 31.584C168.504 33.12 167.16 34.272 165.496 35.04C163.864 35.808 162.04 36.192 160.024 36.192ZM186.083 36.192C183.683 36.192 181.539 35.648 179.651 34.56C177.795 33.472 176.307 31.968 175.187 30.048C174.099 28.128 173.555 25.936 173.555 23.472C173.555 20.976 174.099 18.784 175.187 16.896C176.307 14.976 177.795 13.472 179.651 12.384C181.539 11.296 183.683 10.752 186.083 10.752C188.483 10.752 190.627 11.296 192.515 12.384C194.403 13.472 195.891 14.976 196.979 16.896C198.067 18.784 198.611 20.976 198.611 23.472C198.611 25.936 198.067 28.128 196.979 30.048C195.891 31.968 194.403 33.472 192.515 34.56C190.627 35.648 188.483 36.192 186.083 36.192ZM186.083 34.032C188.003 34.032 189.731 33.6 191.267 32.736C192.803 31.84 194.003 30.592 194.867 28.992C195.731 27.392 196.163 25.552 196.163 23.472C196.163 21.36 195.731 19.52 194.867 17.952C194.003 16.352 192.803 15.12 191.267 14.256C189.731 13.36 188.003 12.912 186.083 12.912C184.163 12.912 182.435 13.36 180.899 14.256C179.395 15.12 178.195 16.352 177.299 17.952C176.435 19.52 176.003 21.36 176.003 23.472C176.003 25.552 176.435 27.392 177.299 28.992C178.195 30.592 179.395 31.84 180.899 32.736C182.435 33.6 184.163 34.032 186.083 34.032ZM215.849 36.192C213.449 36.192 211.305 35.648 209.417 34.56C207.561 33.472 206.073 31.968 204.953 30.048C203.865 28.128 203.321 25.936 203.321 23.472C203.321 20.976 203.865 18.784 204.953 16.896C206.073 14.976 207.561 13.472 209.417 12.384C211.305 11.296 213.449 10.752 215.849 10.752C218.249 10.752 220.393 11.296 222.281 12.384C224.169 13.472 225.657 14.976 226.745 16.896C227.833 18.784 228.377 20.976 228.377 23.472C228.377 25.936 227.833 28.128 226.745 30.048C225.657 31.968 224.169 33.472 222.281 34.56C220.393 35.648 218.249 36.192 215.849 36.192ZM215.849 34.032C217.769 34.032 219.497 33.6 221.033 32.736C222.569 31.84 223.769 30.592 224.633 28.992C225.497 27.392 225.929 25.552 225.929 23.472C225.929 21.36 225.497 19.52 224.633 17.952C223.769 16.352 222.569 15.12 221.033 14.256C219.497 13.36 217.769 12.912 215.849 12.912C213.929 12.912 212.201 13.36 210.665 14.256C209.161 15.12 207.961 16.352 207.065 17.952C206.201 19.52 205.769 21.36 205.769 23.472C205.769 25.552 206.201 27.392 207.065 28.992C207.961 30.592 209.161 31.84 210.665 32.736C212.201 33.6 213.929 34.032 215.849 34.032ZM237.646 29.088L237.694 26.064L254.254 10.944H257.326L246.334 21.264L244.894 22.464L237.646 29.088ZM235.822 36V0.383998H238.222V36H235.822ZM255.406 36L244.462 22.272L246.094 20.496L258.382 36H255.406ZM273.233 36.192C270.705 36.192 268.465 35.648 266.513 34.56C264.593 33.472 263.073 31.968 261.953 30.048C260.865 28.128 260.321 25.936 260.321 23.472C260.321 20.976 260.833 18.784 261.857 16.896C262.913 14.976 264.353 13.472 266.177 12.384C268.001 11.296 270.049 10.752 272.321 10.752C274.593 10.752 276.625 11.28 278.417 12.336C280.241 13.392 281.665 14.88 282.689 16.8C283.745 18.688 284.273 20.88 284.273 23.376C284.273 23.472 284.257 23.584 284.225 23.712C284.225 23.808 284.225 23.92 284.225 24.048H262.097V22.176H282.929L281.969 23.088C282.001 21.136 281.585 19.392 280.721 17.856C279.889 16.288 278.753 15.072 277.313 14.208C275.873 13.312 274.209 12.864 272.321 12.864C270.465 12.864 268.801 13.312 267.329 14.208C265.889 15.072 264.753 16.288 263.921 17.856C263.089 19.392 262.673 21.152 262.673 23.136V23.568C262.673 25.616 263.121 27.44 264.017 29.04C264.945 30.608 266.209 31.84 267.809 32.736C269.409 33.6 271.233 34.032 273.281 34.032C274.881 34.032 276.369 33.744 277.745 33.168C279.153 32.592 280.337 31.712 281.297 30.528L282.689 32.112C281.601 33.456 280.225 34.48 278.561 35.184C276.929 35.856 275.153 36.192 273.233 36.192ZM301.345 36.192C299.009 36.192 296.897 35.664 295.009 34.608C293.153 33.52 291.681 32.016 290.593 30.096C289.505 28.176 288.961 25.968 288.961 23.472C288.961 20.944 289.505 18.736 290.593 16.848C291.681 14.928 293.153 13.44 295.009 12.384C296.897 11.296 299.009 10.752 301.345 10.752C303.553 10.752 305.537 11.264 307.297 12.288C309.089 13.312 310.497 14.768 311.521 16.656C312.577 18.544 313.105 20.816 313.105 23.472C313.105 26.064 312.593 28.32 311.569 30.24C310.545 32.16 309.137 33.632 307.345 34.656C305.585 35.68 303.585 36.192 301.345 36.192ZM301.489 34.032C303.409 34.032 305.121 33.6 306.625 32.736C308.161 31.84 309.361 30.592 310.225 28.992C311.121 27.392 311.569 25.552 311.569 23.472C311.569 21.36 311.121 19.52 310.225 17.952C309.361 16.352 308.161 15.12 306.625 14.256C305.121 13.36 303.409 12.912 301.489 12.912C299.569 12.912 297.841 13.36 296.305 14.256C294.801 15.12 293.601 16.352 292.705 17.952C291.841 19.52 291.409 21.36 291.409 23.472C291.409 25.552 291.841 27.392 292.705 28.992C293.601 30.592 294.801 31.84 296.305 32.736C297.841 33.6 299.569 34.032 301.489 34.032ZM311.617 36V27.792L312.049 23.424L311.569 19.056V0.383998H313.969V36H311.617Z" fill="#224B0C" fill-opacity="0.5"/>
</svg>
