<svg width="17" height="20" viewBox="0 0 17 20" fill="none" xmlns="http://www.w3.org/2000/svg">
<path d="M14.123 10.627C14.098 8.094 16.189 6.879 16.282 6.819C15.107 5.099 13.277 4.864 12.625 4.837C11.068 4.679 9.58601 5.754 8.79501 5.754C8.00701 5.754 6.78701 4.86 5.49501 4.884C3.79901 4.909 2.23401 5.87 1.36001 7.39C-0.403987 10.45 0.908013 14.985 2.62701 17.467C3.46701 18.682 4.46901 20.047 5.78401 19.997C7.05001 19.947 7.52901 19.178 9.06001 19.178C10.591 19.178 11.022 19.998 12.362 19.973C13.725 19.947 14.588 18.734 15.422 17.516C16.387 16.106 16.784 14.741 16.808 14.671C16.778 14.658 14.15 13.651 14.124 10.626L14.123 10.627ZM11.605 3.194C12.303 2.347 12.774 1.172 12.645 0C11.64 0.04 10.421 0.67 9.70001 1.515C9.05301 2.265 8.48601 3.46 8.63801 4.609C9.76001 4.697 10.906 4.039 11.605 3.194V3.194Z" fill="#224B0C"/>
</svg>
