<svg width="21" height="20" viewBox="0 0 21 20" fill="none" xmlns="http://www.w3.org/2000/svg">
<path d="M5.37592 8.068C5.16317 8.68988 5.05504 9.34274 5.05592 10C5.05592 10.734 5.18792 11.437 5.43192 12.086C5.73603 12.8972 6.21372 13.6321 6.83156 14.2393C7.4494 14.8466 8.19247 15.3115 9.00877 15.6015C9.82508 15.8916 10.6949 15.9998 11.5574 15.9185C12.4199 15.8372 13.2542 15.5684 14.0019 15.131H14.0029C15.181 14.4404 16.0861 13.3661 16.5669 12.088H11.2199V8.132H20.8249C21.0733 9.44048 21.0584 10.7854 20.7809 12.088C20.3001 14.3399 19.0568 16.3568 17.2609 17.798C15.4871 19.2264 13.2773 20.0035 10.9999 20C9.28289 20.001 7.59455 19.5597 6.09755 18.7187C4.60056 17.8778 3.34538 16.6655 2.45293 15.1986C1.56049 13.7317 1.06086 12.0597 1.00218 10.3437C0.943502 8.62764 1.32776 6.92541 2.11792 5.401C2.96089 3.77291 4.2353 2.40796 5.8018 1.4554C7.36829 0.502843 9.16655 -0.000642863 10.9999 6.16024e-07C13.4259 6.16024e-07 15.6509 0.864001 17.3829 2.302L14.1429 4.954C13.3839 4.48164 12.5282 4.18643 11.6394 4.09034C10.7507 3.99424 9.85164 4.09972 9.00923 4.39894C8.16682 4.69816 7.40269 5.18342 6.77366 5.81864C6.14463 6.45386 5.66688 7.2227 5.37592 8.068V8.068Z" fill="#224B0C"/>
</svg>
